<svg width="1104" height="203" viewBox="0 0 1104 203" fill="none" xmlns="http://www.w3.org/2000/svg">
<path d="M238.977 36.9561H257.855V119.622H309.343V137.07H238.977V36.9561ZM354.532 65.1311C376.986 65.1311 391.431 81.7214 391.431 101.887C391.431 122.196 377.558 138.644 354.675 138.644C331.791 138.644 318.061 122.196 318.061 101.887C318.061 81.7214 332.077 65.1311 354.532 65.1311ZM354.675 81.0063C342.089 81.0063 335.51 91.3038 335.51 101.887C335.51 112.614 341.946 122.625 354.675 122.625C367.403 122.625 373.839 112.614 373.839 101.887C373.839 91.3038 366.402 81.0063 354.675 81.0063ZM452.246 116.618L463.973 128.06C455.821 136.069 447.24 139.216 436.8 139.216C416.348 139.216 399.328 126.916 399.328 101.887C399.328 76.8588 416.348 64.559 436.8 64.559C446.811 64.559 454.534 67.4194 462.257 74.9995L451.245 86.5841C447.097 82.8656 441.948 81.0063 437.086 81.0063C425.358 81.0063 416.777 89.5876 416.777 101.887C416.777 115.331 425.93 122.482 436.8 122.482C442.377 122.482 447.955 120.909 452.246 116.618ZM526.983 76.2867L527.555 66.5613H544.288V137.07H527.841L526.983 126.773C522.978 135.068 511.966 139.073 504.1 139.216C483.219 139.359 467.772 126.487 467.772 101.744C467.772 77.4308 483.934 64.702 504.529 64.8451C513.968 64.8451 522.978 69.2787 526.983 76.2867ZM506.102 80.4343C494.517 80.4343 485.221 88.3004 485.221 101.744C485.221 115.188 494.517 123.197 506.102 123.197C533.562 123.197 533.562 80.4343 506.102 80.4343ZM559.066 37.0991H576.372V137.07H559.066V37.0991ZM669.698 53.4034L654.681 61.1265C651.248 55.4057 641.809 49.9709 630.94 49.9709C616.924 49.9709 610.202 55.8348 610.202 63.2718C610.202 71.9961 620.499 74.4274 632.513 75.8576C653.394 78.432 672.845 83.8668 672.845 107.751C672.845 130.062 653.108 139.645 630.797 139.645C610.345 139.645 594.612 133.352 587.175 115.045L602.908 106.893C607.341 117.906 618.926 122.768 631.083 122.768C642.953 122.768 654.109 118.621 654.109 107.751C654.109 98.3118 644.24 94.4503 630.94 93.0201C610.488 90.5887 591.609 85.1539 591.609 62.6997C591.609 42.1048 611.918 33.6666 630.367 33.5236C645.957 33.5236 662.118 37.9572 669.698 53.4034ZM722.138 65.1311C744.593 65.1311 759.038 81.7214 759.038 101.887C759.038 122.196 745.165 138.644 722.281 138.644C699.398 138.644 685.668 122.196 685.668 101.887C685.668 81.7214 699.684 65.1311 722.138 65.1311ZM722.281 81.0063C709.696 81.0063 703.117 91.3038 703.117 101.887C703.117 112.614 709.553 122.625 722.281 122.625C735.01 122.625 741.446 112.614 741.446 101.887C741.446 91.3038 734.009 81.0063 722.281 81.0063ZM771.083 37.0991H788.388V137.07H771.083V37.0991ZM858.974 76.2867L859.546 66.5613H876.28V137.07H859.832L858.974 126.773C854.97 135.068 843.957 139.073 836.091 139.216C815.21 139.359 799.764 126.487 799.764 101.744C799.764 77.4308 815.925 64.702 836.52 64.8451C845.959 64.8451 854.97 69.2787 858.974 76.2867ZM838.093 80.4343C826.509 80.4343 817.212 88.3004 817.212 101.744C817.212 115.188 826.509 123.197 838.093 123.197C865.553 123.197 865.553 80.4343 838.093 80.4343ZM960.423 137.07H942.974V100.171C942.974 89.4445 937.11 81.2924 925.955 81.2924C915.228 81.2924 907.934 90.3027 907.934 101.029V137.07H890.629V66.4183H906.218L907.362 76.0006C914.513 68.9926 921.664 65.4171 930.531 65.4171C947.122 65.4171 960.423 77.8599 960.423 100.028V137.07ZM1030.77 76.2867L1031.34 66.5613H1048.07V137.07H1031.62L1030.77 126.773C1026.76 135.068 1015.75 139.073 1007.88 139.216C987.002 139.359 971.556 126.487 971.556 101.744C971.556 77.4308 987.717 64.702 1008.31 64.8451C1017.75 64.8451 1026.76 69.2787 1030.77 76.2867ZM1009.89 80.4343C998.301 80.4343 989.004 88.3004 989.004 101.744C989.004 115.188 998.301 123.197 1009.89 123.197C1037.35 123.197 1037.35 80.4343 1009.89 80.4343Z" fill="black"/>
<g clip-path="url(#clip0_89_1676)">
<path d="M80.5278 0C86.1731 0.0177968 91.802 0.607206 97.3285 1.75921L92.9662 17.9973C84.7571 16.4018 76.3176 16.4018 68.1085 17.9973L63.7272 1.75921C69.2536 0.606979 74.8826 0.017568 80.5278 0ZM105.386 3.94272C116.149 7.42933 126.052 13.1551 134.443 20.7434L122.572 32.6145C116.279 27.0785 108.954 22.8402 101.019 20.1427L105.386 3.94272ZM140.355 26.6551C147.953 35.0489 153.68 44.9619 157.156 55.7368L140.946 60.0657C138.232 52.1439 133.999 44.8274 128.484 38.5262L140.355 26.6551ZM159.296 63.7701C161.642 74.8477 161.642 86.2938 159.296 97.3714L143.087 92.9996C144.689 84.7767 144.689 76.3219 143.087 68.099L159.296 63.7701ZM157.156 105.428C153.667 116.189 147.941 126.09 140.355 134.482L128.484 122.611C134.002 116.317 138.225 108.998 140.913 101.071L157.156 105.428ZM134.443 140.398C126.03 147.954 116.136 153.676 105.39 157.199L101.019 140.956C108.96 138.272 116.288 134.032 122.572 128.484L134.443 140.398ZM97.3333 159.339C86.2556 161.685 74.8096 161.685 63.7319 159.339L68.1037 143.096C76.3066 144.756 84.7586 144.756 92.9615 143.096L97.3333 159.339ZM55.6748 157.199C44.9203 153.693 35.0211 147.969 26.6169 140.398L38.488 128.479C44.7753 134.026 52.1039 138.266 60.0466 140.951L55.6748 157.199ZM20.7005 134.482C13.1127 126.091 7.38702 116.19 3.8998 105.428L20.1093 101.057C22.8238 108.985 27.0603 116.306 32.5811 122.611L20.7005 134.482ZM1.75919 97.3714C-0.586397 86.2938 -0.586397 74.8477 1.75919 63.7701L17.9687 68.099C16.3732 76.3225 16.3732 84.7761 17.9687 92.9996L1.75919 97.3714ZM3.8998 55.713C7.38878 44.9438 13.1141 35.0334 20.7005 26.6313L32.5715 38.55C27.0501 44.832 22.8261 52.1443 20.1427 60.0657L3.8998 55.713ZM26.6122 20.7434C35.0111 13.1527 44.9225 7.42681 55.6939 3.94272L60.0657 20.1522C52.1213 22.845 44.7869 27.0801 38.4832 32.6145L26.6122 20.7434Z" fill="url(#paint0_linear_89_1676)"/>
<path d="M38.0117 156.255C46.6695 160.884 56.0138 164.398 65.7443 166.023C82.4033 168.919 99.5454 166.891 115.069 160.188C117.681 159.158 120.084 157.657 122.697 156.674C120.685 159.759 118.11 162.395 115.798 165.289C107.012 175.659 98.1823 186.028 88.7141 195.801C86.3971 197.942 84.2135 200.345 81.4722 201.928C80.3137 202.614 79.1981 201.584 78.2971 200.974C75.6707 198.818 73.1805 196.501 70.8407 194.037C59.3558 181.923 48.5145 169.199 38.0117 156.255Z" fill="url(#paint1_linear_89_1676)"/>
<g clip-path="url(#clip1_89_1676)">
<path d="M56.0204 96.2676C56.467 95.8211 57.081 95.5605 57.7323 95.5605H116.793C117.872 95.5605 118.412 96.8631 117.649 97.626L105.982 109.293C105.535 109.74 104.921 110 104.27 110H45.2093C44.1301 110 43.5905 108.698 44.3534 107.935L56.0204 96.2676Z" fill="url(#paint2_linear_89_1676)"/>
<path d="M56.0204 52.7071C56.4856 52.2605 57.0996 52 57.7323 52H116.793C117.872 52 118.412 53.3025 117.649 54.0654L105.982 65.7324C105.535 66.179 104.921 66.4395 104.27 66.4395H45.2093C44.1301 66.4395 43.5905 65.137 44.3534 64.3741L56.0204 52.7071Z" fill="url(#paint3_linear_89_1676)"/>
<path d="M105.982 74.3477C105.535 73.9011 104.921 73.6406 104.27 73.6406H45.2093C44.1301 73.6406 43.5905 74.9432 44.3534 75.7061L56.0204 87.3731C56.467 87.8196 57.081 88.0801 57.7323 88.0801H116.793C117.872 88.0801 118.412 86.7776 117.649 86.0147L105.982 74.3477Z" fill="url(#paint4_linear_89_1676)"/>
</g>
</g>
<defs>
<linearGradient id="paint0_linear_89_1676" x1="80.5278" y1="0" x2="80.5278" y2="161.099" gradientUnits="userSpaceOnUse">
<stop stop-color="#610DEA"/>
<stop offset="0.752222" stop-color="#56DEDE"/>
<stop offset="1" stop-color="#82FFBC"/>
</linearGradient>
<linearGradient id="paint1_linear_89_1676" x1="80.3543" y1="156.255" x2="80.3543" y2="202.155" gradientUnits="userSpaceOnUse">
<stop stop-color="#610DEA"/>
<stop offset="0.752222" stop-color="#56DEDE"/>
<stop offset="1" stop-color="#82FFBC"/>
</linearGradient>
<linearGradient id="paint2_linear_89_1676" x1="111.151" y1="45.0305" x2="70.2762" y2="123.322" gradientUnits="userSpaceOnUse">
<stop stop-color="#00FFA3"/>
<stop offset="1" stop-color="#DC1FFF"/>
</linearGradient>
<linearGradient id="paint3_linear_89_1676" x1="93.2783" y1="35.6995" x2="52.4036" y2="113.991" gradientUnits="userSpaceOnUse">
<stop stop-color="#00FFA3"/>
<stop offset="1" stop-color="#DC1FFF"/>
</linearGradient>
<linearGradient id="paint4_linear_89_1676" x1="102.158" y1="40.3352" x2="61.283" y2="118.627" gradientUnits="userSpaceOnUse">
<stop stop-color="#00FFA3"/>
<stop offset="1" stop-color="#DC1FFF"/>
</linearGradient>
<clipPath id="clip0_89_1676">
<rect width="161.056" height="202.166" fill="white"/>
</clipPath>
<clipPath id="clip1_89_1676">
<rect width="74.0026" height="58" fill="white" transform="translate(44 52)"/>
</clipPath>
</defs>
</svg>
