<svg width="162" height="203" viewBox="0 0 162 203" fill="none" xmlns="http://www.w3.org/2000/svg">
<g clip-path="url(#clip0_89_1652)">
<path d="M80.5278 0C86.1731 0.0177968 91.802 0.607206 97.3285 1.75921L92.9662 17.9973C84.7571 16.4018 76.3176 16.4018 68.1085 17.9973L63.7272 1.75921C69.2536 0.606979 74.8826 0.017568 80.5278 0ZM105.386 3.94272C116.149 7.42933 126.052 13.1551 134.443 20.7434L122.572 32.6145C116.279 27.0785 108.954 22.8402 101.019 20.1427L105.386 3.94272ZM140.355 26.6551C147.953 35.0489 153.68 44.9619 157.156 55.7368L140.946 60.0657C138.232 52.1439 133.999 44.8274 128.484 38.5262L140.355 26.6551ZM159.296 63.7701C161.642 74.8477 161.642 86.2938 159.296 97.3714L143.087 92.9996C144.689 84.7767 144.689 76.3219 143.087 68.099L159.296 63.7701ZM157.156 105.428C153.667 116.189 147.941 126.09 140.355 134.482L128.484 122.611C134.002 116.317 138.225 108.998 140.913 101.071L157.156 105.428ZM134.443 140.398C126.03 147.954 116.136 153.676 105.39 157.199L101.019 140.956C108.96 138.272 116.288 134.032 122.572 128.484L134.443 140.398ZM97.3333 159.339C86.2556 161.685 74.8096 161.685 63.7319 159.339L68.1037 143.096C76.3066 144.756 84.7586 144.756 92.9615 143.096L97.3333 159.339ZM55.6748 157.199C44.9203 153.693 35.0211 147.969 26.6169 140.398L38.488 128.479C44.7753 134.026 52.1039 138.266 60.0466 140.951L55.6748 157.199ZM20.7005 134.482C13.1127 126.091 7.38702 116.19 3.8998 105.428L20.1093 101.057C22.8238 108.985 27.0603 116.306 32.5811 122.611L20.7005 134.482ZM1.75919 97.3714C-0.586397 86.2938 -0.586397 74.8477 1.75919 63.7701L17.9687 68.099C16.3732 76.3225 16.3732 84.7761 17.9687 92.9996L1.75919 97.3714ZM3.8998 55.713C7.38878 44.9438 13.1141 35.0334 20.7005 26.6313L32.5715 38.55C27.0501 44.832 22.8261 52.1443 20.1427 60.0657L3.8998 55.713ZM26.6122 20.7434C35.0111 13.1527 44.9225 7.42681 55.6939 3.94272L60.0657 20.1522C52.1213 22.845 44.7869 27.0801 38.4832 32.6145L26.6122 20.7434Z" fill="url(#paint0_linear_89_1652)"/>
<path d="M38.0117 156.255C46.6695 160.884 56.0138 164.398 65.7443 166.023C82.4033 168.919 99.5454 166.891 115.069 160.188C117.681 159.158 120.084 157.657 122.697 156.674C120.685 159.759 118.11 162.395 115.798 165.289C107.012 175.659 98.1823 186.028 88.7141 195.801C86.3971 197.942 84.2135 200.345 81.4722 201.928C80.3137 202.614 79.1981 201.584 78.2971 200.974C75.6707 198.818 73.1805 196.501 70.8407 194.037C59.3558 181.923 48.5145 169.199 38.0117 156.255Z" fill="url(#paint1_linear_89_1652)"/>
<g clip-path="url(#clip1_89_1652)">
<path d="M56.0204 96.2676C56.467 95.8211 57.081 95.5605 57.7323 95.5605H116.793C117.872 95.5605 118.412 96.8631 117.649 97.626L105.982 109.293C105.535 109.74 104.921 110 104.27 110H45.2093C44.1301 110 43.5905 108.698 44.3534 107.935L56.0204 96.2676Z" fill="url(#paint2_linear_89_1652)"/>
<path d="M56.0204 52.7071C56.4856 52.2605 57.0996 52 57.7323 52H116.793C117.872 52 118.412 53.3025 117.649 54.0654L105.982 65.7324C105.535 66.179 104.921 66.4395 104.27 66.4395H45.2093C44.1301 66.4395 43.5905 65.137 44.3534 64.3741L56.0204 52.7071Z" fill="url(#paint3_linear_89_1652)"/>
<path d="M105.982 74.3477C105.535 73.9011 104.921 73.6406 104.27 73.6406H45.2093C44.1301 73.6406 43.5905 74.9432 44.3534 75.7061L56.0204 87.3731C56.467 87.8196 57.081 88.0801 57.7323 88.0801H116.793C117.872 88.0801 118.412 86.7776 117.649 86.0147L105.982 74.3477Z" fill="url(#paint4_linear_89_1652)"/>
</g>
</g>
<defs>
<linearGradient id="paint0_linear_89_1652" x1="80.5278" y1="0" x2="80.5278" y2="161.099" gradientUnits="userSpaceOnUse">
<stop stop-color="#610DEA"/>
<stop offset="0.752222" stop-color="#56DEDE"/>
<stop offset="1" stop-color="#82FFBC"/>
</linearGradient>
<linearGradient id="paint1_linear_89_1652" x1="80.3543" y1="156.255" x2="80.3543" y2="202.155" gradientUnits="userSpaceOnUse">
<stop stop-color="#610DEA"/>
<stop offset="0.752222" stop-color="#56DEDE"/>
<stop offset="1" stop-color="#82FFBC"/>
</linearGradient>
<linearGradient id="paint2_linear_89_1652" x1="111.151" y1="45.0305" x2="70.2762" y2="123.322" gradientUnits="userSpaceOnUse">
<stop stop-color="#00FFA3"/>
<stop offset="1" stop-color="#DC1FFF"/>
</linearGradient>
<linearGradient id="paint3_linear_89_1652" x1="93.2783" y1="35.6995" x2="52.4036" y2="113.991" gradientUnits="userSpaceOnUse">
<stop stop-color="#00FFA3"/>
<stop offset="1" stop-color="#DC1FFF"/>
</linearGradient>
<linearGradient id="paint4_linear_89_1652" x1="102.158" y1="40.3352" x2="61.283" y2="118.627" gradientUnits="userSpaceOnUse">
<stop stop-color="#00FFA3"/>
<stop offset="1" stop-color="#DC1FFF"/>
</linearGradient>
<clipPath id="clip0_89_1652">
<rect width="161.056" height="202.166" fill="white"/>
</clipPath>
<clipPath id="clip1_89_1652">
<rect width="74.0026" height="58" fill="white" transform="translate(44 52)"/>
</clipPath>
</defs>
</svg>
